<?xml version="1.0" encoding="UTF-8"?>
<svg id="workana-logo" xmlns="http://www.w3.org/2000/svg" viewBox="0 0 594.95638 97.7664">
  <polygon points="87.23529 67.571 70.967 21.4302 53.43 21.4302 36.86349 67.5807 22.66279 21.4302 0 21.4302 26.36 95.5188 46.96329 95.5188 62.21089 50.666 78.04939 95.5188 97.72689 95.5188 124.39889 21.4302 101.58029 21.4302 87.23529 67.571" fill="#002d72"/>
  <path d="M236.51189,26.1032v-4.673h-20.257v74.0886h20.257v-37.4272c0-7.0567,1.3682-11.048,4.7224-13.7765,4.0009-3.2543,11.1634-4.7699,22.5414-4.7699h.7229v-19.4911h-.7229c-13.68569,0-20.60469,1.4923-27.2638,6.0491Z" fill="#002d72"/>
  <path d="M404.047,26.0502c-5.51082-3.98-12.05122-5.9961-19.46472-5.9961-10.5494,0-20.4242,3.9977-27.8048,11.2565-7.3879,7.2661-11.4567,16.9944-11.4567,27.393,0,10.3502,4.068,20.0847,11.4545,27.4105,7.4079,7.347,17.2833,11.393,27.807,11.393,7.5346,0,14.0748-2.0096,19.46472-5.9773v3.989h20.25678V21.4302h-20.25678v4.62ZM398.35308,45.2607c3.6718,3.6524,5.69392,8.4266,5.69392,13.4429,0,5.0831-2.02262,9.9051-5.69522,13.5777-3.6974,3.6976-8.5875,5.7337-13.7695,5.7337-5.11428,0-9.9558-2.0358-13.6329-5.7323-3.6612-3.6807-5.6775-8.5032-5.6775-13.5791,0-10.385,8.843-19.1584,19.3104-19.1584,5.175,0,10.0655,2.0298,13.7708,5.7155Z" fill="#002d72"/>
  <path d="M498.00668,27.7664c-5.28768-5.0455-12.65268-7.7123-21.2986-7.7123-9.33908,0-14.4378,3.1492-18.3924,6.0215v-4.6454h-20.2569v74.0886h20.2569v-39.8738c0-6.0996,1.4929-10.5024,4.4371-13.0866,2.3104-2.0276,5.5247-3.0132,9.8266-3.0132,4.283,0,7.4952,1.0151,9.82062,3.1031,2.94878,2.6477,4.444,7.1235,4.444,13.3028v39.5677h20.25688v-42.6263c0-10.9146-3.0597-19.3684-9.0942-25.1261Z" fill="#002d72"/>
  <path d="M574.70028,21.4302v4.6201c-5.51128-3.98-12.0516-5.9962-19.4645-5.9962-10.5499,0-20.4244,3.9977-27.8051,11.2565-7.38768,7.2661-11.4563,16.9943-11.4563,27.393,0,10.3503,4.0678,20.0848,11.4542,27.4105,7.4078,7.347,17.2833,11.393,27.8072,11.393,7.5338,0,14.074-2.0098,19.4645-5.9774v3.9891h20.2561V21.4302h-20.2561ZM574.70028,58.7036c0,5.083-2.0228,9.9049-5.6955,13.5777-3.6974,3.6976-8.5873,5.7337-13.769,5.7337-5.1146,0-9.9564-2.0358-13.6337-5.7323-3.6613-3.6807-5.6778-8.5032-5.6778-13.5791,0-10.385,8.8436-19.1584,19.3115-19.1584,5.1748,0,10.06522,2.0298,13.7705,5.7155,3.6718,3.6525,5.694,8.4267,5.694,13.4429Z" fill="#002d72"/>
  <path d="M275.939,0h20.32059l-.1072,52.6499,23.5542-29.2213h27.1615l-29.8649,36.044,30.1224,35.7862h-27.2904l-23.1583-31.397-.4173,31.397h-20.32059V0Z" fill="#002d72"/>
  <g>
    <path d="M164.90009,36.7361c5.7286-3.3139,12.379-5.2115,19.4731-5.2115,3.2355,0,6.37781.3972,9.3835,1.1407-7.1254-7.8567-17.4145-12.791-28.8566-12.791s-21.73109,4.9343-28.8565,12.791c3.0057-.7435,6.148-1.1407,9.3835-1.1407,7.094,0,13.7445,1.8976,19.473,5.2115Z" fill="#ffc600"/>
    <path d="M127.49249,47.9531c-1.0003,3.4494-1.53849,7.0952-1.53849,10.8673,0,18.2739,12.58659,33.6055,29.56259,37.8054-6.1959-6.8319-9.9969-15.874-10.0851-25.8028-8.5969-4.9717-15.1157-13.1351-17.939-22.8699Z" fill="#ff4807"/>
    <path d="M145.43149,70.823c-.001-.1175-.0044-.2345-.0044-.3524,0-14.4152,7.8323-27.0004,19.473-33.7345-5.7285-3.3139-12.379-5.2115-19.473-5.2115-3.2355,0-6.3778.3972-9.3835,1.1407-3.9204,4.3228-6.8815,9.5307-8.5511,15.2878,2.8233,9.7348,9.3421,17.8982,17.939,22.8699Z" fill="#ff97b1"/>
    <path d="M184.36869,70.823c-.0882,9.9288-3.8891,18.9709-10.0851,25.8028,16.976-4.1999,29.5626-19.5315,29.5626-37.8054,0-3.7721-.5381-7.4179-1.5384-10.8673-2.8233,9.7348-9.3421,17.8982-17.9391,22.8699Z" fill="#0a78ff"/>
    <path d="M184.37319,31.5246c-7.0941,0-13.7445,1.8976-19.4731,5.2115,11.6407,6.7341,19.4731,19.3193,19.4731,33.7345,0,.1179-.0034.2349-.0045.3524,8.597-4.9717,15.1158-13.1351,17.9391-22.8699-1.6696-5.7571-4.63079-10.965-8.5511-15.2878-3.00569-.7435-6.148-1.1407-9.3835-1.1407Z" fill="#00b450"/>
    <path d="M164.90009,76.032c-7.09209,0-13.741-1.8966-19.4686-5.209.0882,9.9288,3.8892,18.9709,10.0851,25.8028,3.0059.7436,6.1481,1.1406,9.3835,1.1406s6.3777-.397,9.3835-1.1406c6.196-6.8319,9.9969-15.874,10.0851-25.8028-5.7276,3.3124-12.3764,5.209-19.4686,5.209Z" fill="#bf17a7"/>
    <path d="M145.42709,70.4706c0,.1179.0034.2349.0044.3524,5.7276,3.3124,12.37651,5.209,19.4686,5.209s13.741-1.8966,19.4686-5.209c.0011-.1175.0045-.2345.0045-.3524,0-14.4152-7.8324-27.0004-19.4731-33.7345-11.6407,6.7341-19.473,19.3193-19.473,33.7345Z" fill="#002d72"/>
  </g>
</svg>